<svg xmlns="http://www.w3.org/2000/svg" width="50" height="40" viewBox="0 0 50 40">
  <path id="Trazado_1209" data-name="Trazado 1209" d="M-6.25-35H-17.3a3.74,3.74,0,0,0-3.555,2.562L-24.8-20.578A3.574,3.574,0,0,0-24.9-20H-6.25Zm18.375,6.383L10.852-32.43A3.737,3.737,0,0,0,7.3-35H-3.75v12.3A18.668,18.668,0,0,1,10-28.75,17.33,17.33,0,0,1,12.125-28.617ZM-8.75-10a18.635,18.635,0,0,1,1.578-7.5H-25V1.25A3.751,3.751,0,0,0-21.25,5H-1.2A18.708,18.708,0,0,1-8.75-10ZM10-25A15,15,0,0,0-5-10,15,15,0,0,0,10,5,15,15,0,0,0,25-10,15,15,0,0,0,10-25Zm8.914,11.547L8.68-3.3A.856.856,0,0,1,7.461-3.3L1.547-9.266a.863.863,0,0,1,.008-1.219L3.586-12.5a.863.863,0,0,1,1.219.008l3.289,3.32L15.687-16.7a.863.863,0,0,1,1.219.008l2.016,2.031A.86.86,0,0,1,18.914-13.453Z" transform="translate(25 35)" fill="#00328f"/>
</svg>
