<svg xmlns="http://www.w3.org/2000/svg" width="31.5" height="28" viewBox="0 0 31.5 28">
  <path id="carrito" d="M30.187-21H7.07l-.455-2.429A1.313,1.313,0,0,0,5.324-24.5H.656A.656.656,0,0,0,0-23.844v.437a.656.656,0,0,0,.656.656h4.3l3.824,20.4A3.487,3.487,0,0,0,7.875,0a3.5,3.5,0,0,0,3.5,3.5,3.5,3.5,0,0,0,3.5-3.5V0a4.112,4.112,0,0,0-.469-1.746h7.939A4.112,4.112,0,0,0,21.875,0V0a3.5,3.5,0,0,0,3.5,3.5,3.5,3.5,0,0,0,3.5-3.5,3.489,3.489,0,0,0-1.06-2.508A1.313,1.313,0,0,0,26.541-3.5H10.351L9.695-7H27.817A1.313,1.313,0,0,0,29.1-8.045l2.37-11.375A1.313,1.313,0,0,0,30.187-21ZM13.125,0a1.752,1.752,0,0,1-1.75,1.75A1.752,1.752,0,0,1,9.625,0a1.75,1.75,0,1,1,3.5,0Zm12.25,1.75A1.752,1.752,0,0,1,23.625,0a1.75,1.75,0,0,1,3.5,0A1.752,1.752,0,0,1,25.375,1.75Zm2.087-10.5H9.367L7.4-19.25H29.649Z" transform="translate(0 24.5)" fill="#fff"/>
</svg>
