<svg xmlns="http://www.w3.org/2000/svg" width="27.125" height="27.125" viewBox="0 0 27.125 27.125">
  <path id="Trazado_1208" data-name="Trazado 1208" d="M13.562-24.062A13.56,13.56,0,0,0,0-10.5,13.56,13.56,0,0,0,13.562,3.062,13.56,13.56,0,0,0,27.125-10.5,13.56,13.56,0,0,0,13.562-24.062Zm7,23.056a11.75,11.75,0,0,1-7,2.319,11.75,11.75,0,0,1-7-2.319V-1.75a3.5,3.5,0,0,1,3.5-3.5,15.908,15.908,0,0,0,3.5.623,15.909,15.909,0,0,0,3.5-.623,3.5,3.5,0,0,1,3.5,3.5Zm1.673-1.5A5.233,5.233,0,0,0,17.062-7c-1.121,0-1.663.623-3.5.623S11.189-7,10.062-7A5.233,5.233,0,0,0,4.889-2.51,11.749,11.749,0,0,1,1.75-10.5,11.826,11.826,0,0,1,13.562-22.312,11.826,11.826,0,0,1,25.375-10.5,11.749,11.749,0,0,1,22.236-2.51ZM13.562-17.937A4.813,4.813,0,0,0,8.75-13.125a4.813,4.813,0,0,0,4.812,4.812,4.813,4.813,0,0,0,4.812-4.812A4.813,4.813,0,0,0,13.562-17.937Zm0,7.875A3.064,3.064,0,0,1,10.5-13.125a3.064,3.064,0,0,1,3.062-3.062,3.064,3.064,0,0,1,3.062,3.062A3.064,3.064,0,0,1,13.562-10.062Z" transform="translate(0 24.062)" fill="#fff"/>
</svg>
